Coordinates
version=1
nRows=12
nColumns=24
inDegrees=yes

Units are S.I. units (second, meters, Newtons, ...)
Angles are in degrees.

endheader
time	pelvis_tilt	pelvis_list	pelvis_rotation	pelvis_tx	pelvis_ty	pelvis_tz	hip_flexion_r	hip_adduction_r	hip_rotation_r	knee_angle_r	ankle_angle_r	subtalar_angle_r	mtp_angle_r	hip_flexion_l	hip_adduction_l	hip_rotation_l	knee_angle_l	ankle_angle_l	subtalar_angle_l	mtp_angle_l	lumbar_extension	lumbar_bending	lumbar_rotation
      0.57066667	      2.82154527	      0.64208007	      2.60313023	     -0.52170122	      1.06910955	      0.30838613	      9.65516111	      2.36178430	     -2.12892730	    -20.67939068	     11.31167140	     -4.40508087	      7.29778964	     15.26645266	     -5.12812949	     -6.17526054	    -72.24107469	      7.41528586	      3.47246120	      3.22629916	    -16.60256731	      3.02572944	      0.56736848
      0.57483333	      2.85306147	      0.77682848	      2.54399623	     -0.51673401	      1.07031415	      0.30854415	      9.11507787	      2.23723255	     -2.09713329	    -20.25737307	     11.37236251	     -4.29979937	      7.29169112	     15.71354793	     -4.97113182	     -6.30032611	    -71.80140567	      7.65393659	      3.68789571	      3.16646794	    -16.68243249	      2.85956552	      0.69292244
      0.57900000	      2.87425639	      0.89369281	      2.47676532	     -0.51175122	      1.07143645	      0.30870905	      8.58851683	      2.12984439	     -2.08281340	    -19.83411918	     11.41572551	     -4.20151704	      7.28837747	     16.16017603	     -4.84302882	     -6.44676662	    -71.32035553	      7.90125843	      3.93131466	      3.13090322	    -16.72335801	      2.69372197	      0.79759640
      0.58316667	      2.94002151	      1.00982597	      2.38884728	     -0.50680767	      1.07259420	      0.30887702	      8.01376522	      2.02796416	     -2.01933057	    -19.40559326	     11.50289091	     -4.08395821	      7.28368271	     16.53738988	     -4.71675481	     -6.60557629	    -70.77658653	      8.14659773	      4.23452848	      3.05433423	    -16.86066398	      2.54742081	      1.02332972
      0.58733333	      2.97951176	      1.11673611	      2.29408658	     -0.50185372	      1.07366034	      0.30904885	      7.47217515	      1.93378963	     -1.96159265	    -18.98107594	     11.54845022	     -3.99415361	      7.28031701	     16.93078234	     -4.60348895	     -6.77733271	    -70.18795905	      8.39216006	      4.55101806	      2.99205509	    -16.94786136	      2.40264731	      1.18467058
      0.59150000	      3.01349468	      1.22902885	      2.18473100	     -0.49690610	      1.07467755	      0.30922893	      6.94177032	      1.83228769	     -1.88940532	    -18.56363502	     11.59738137	     -3.89913150	      7.27946332	     17.31102863	     -4.48650793	     -6.96666554	    -69.54272610	      8.63185463	      4.88343801	      2.94032690	    -17.02777305	      2.24736665	      1.34645269
      0.59566667	      3.04483047	      1.35696669	      2.05932450	     -0.49196866	      1.07564232	      0.30940230	      6.42755305	      1.70890922	     -1.81895072	    -18.17076989	     11.63545943	     -3.79717501	      7.28069646	     17.67316260	     -4.35167227	     -7.17537305	    -68.83797107	      8.85786044	      5.21463469	      2.91689150	    -17.10370863	      2.08347984	      1.45855972
      0.59983333	      3.08867719	      1.43874554	      1.93765256	     -0.48702281	      1.07655598	      0.30958618	      5.88813522	      1.63995822	     -1.73416469	    -17.74817176	     11.70593908	     -3.70482591	      7.28365291	     18.01682786	     -4.27715111	     -7.38338944	    -68.10749562	      9.09355577	      5.56166766	      2.88059100	    -17.19305624	      1.95165423	      1.68192149
      0.60400000	      3.11609049	      1.54679817	      1.79629915	     -0.48209315	      1.07740878	      0.30976050	      5.38475560	      1.53574524	     -1.64695472	    -17.35956684	     11.73351903	     -3.60831849	      7.28602170	     18.35349812	     -4.16803282	     -7.60890543	    -67.30886362	      9.30682281	      5.88830446	      2.86576524	    -17.26123593	      1.80868477	      1.79847273
      0.60816667	      3.17799396	      1.61744184	      1.66045073	     -0.47716837	      1.07824147	      0.30994397	      4.83281899	      1.47590206	     -1.54934540	    -16.94341255	     11.80828691	     -3.52767963	      7.29119514	     18.64669626	     -4.10993979	     -7.83469915	    -66.48370545	      9.52604250	      6.22228024	      2.83845661	    -17.37661599	      1.68632567	      2.04396384
      0.61233333	      3.19710695	      1.69727657	      1.51147869	     -0.47223457	      1.07895418	      0.31012389	      4.34171742	      1.40111982	     -1.44262793	    -16.55616113	     11.86247785	     -3.44757462	      7.29657937	     18.96623260	     -4.03737835	     -8.06938695	    -65.60483909	      9.72667779	      6.53259976	      2.81553917	    -17.43296039	      1.56013621	      2.23377253
      0.61650000	      3.23298203	      1.77581589	      1.35911221	     -0.46731797	      1.07965449	      0.31029694	      3.83492314	      1.32544325	     -1.33593711	    -16.16913846	     11.91118615	     -3.36551502	      7.30299697	     19.25067750	     -3.96463017	     -8.30612425	    -64.67459864	      9.91273778	      6.81588265	      2.79262272	    -17.51771498	      1.43767072	      2.42972510
